<?xml version="1.0" encoding="UTF-8" standalone="no"?>
<svg
   xmlns:dc="http://purl.org/dc/elements/1.1/"
   xmlns:cc="http://creativecommons.org/ns#"
   xmlns:rdf="http://www.w3.org/1999/02/22-rdf-syntax-ns#"
   xmlns:svg="http://www.w3.org/2000/svg"
   xmlns="http://www.w3.org/2000/svg"
   xmlns:sodipodi="http://sodipodi.sourceforge.net/DTD/sodipodi-0.dtd"
   xmlns:inkscape="http://www.inkscape.org/namespaces/inkscape"
   width="133.93817"
   height="36.988186"
   viewBox="0 0 35.437806 9.7864579"
   version="1.1"
   id="svg16"
   inkscape:version="1.0.1 (c497b03c, 2020-09-10)"
   sodipodi:docname="indesit.svg">
  <defs
     id="defs10">
    <clipPath
       id="clip50">
      <path
         d="m 546,776 h 13.27734 v 13 H 546 Z m 0,0"
         id="path566" />
    </clipPath>
    <clipPath
       id="clip51">
      <path
         d="m 366,769.38281 h 1 V 770 h -1 z m 0,0"
         id="path569" />
    </clipPath>
    <clipPath
       id="clip52">
      <path
         d="m 365,769.38281 h 2 V 770 h -2 z m 0,0"
         id="path572" />
    </clipPath>
    <clipPath
       id="clip53">
      <path
         d="m 365,769.38281 h 1 V 771 h -1 z m 0,0"
         id="path575" />
    </clipPath>
    <clipPath
       id="clip54">
      <path
         d="m 365,769.38281 h 1 V 770 h -1 z m 0,0"
         id="path578" />
    </clipPath>
    <clipPath
       id="clip55">
      <path
         d="m 365,769.38281 h 1 V 770 h -1 z m 0,0"
         id="path581" />
    </clipPath>
    <clipPath
       id="clip56">
      <path
         d="m 365,769.38281 h 1 V 771 h -1 z m 0,0"
         id="path584" />
    </clipPath>
    <clipPath
       id="clip57">
      <path
         d="m 364,769.38281 h 2 V 770 h -2 z m 0,0"
         id="path587" />
    </clipPath>
    <clipPath
       id="clip58">
      <path
         d="m 364,769.38281 h 2 V 771 h -2 z m 0,0"
         id="path590" />
    </clipPath>
    <clipPath
       id="clip59">
      <path
         d="m 364,769.38281 h 1 V 771 h -1 z m 0,0"
         id="path593" />
    </clipPath>
    <clipPath
       id="clip60">
      <path
         d="m 364,769.38281 h 1 V 770 h -1 z m 0,0"
         id="path596" />
    </clipPath>
    <clipPath
       id="clip61">
      <path
         d="m 363,769.38281 h 2 V 770 h -2 z m 0,0"
         id="path599" />
    </clipPath>
    <clipPath
       id="clip62">
      <path
         d="m 363,769.38281 h 2 V 771 h -2 z m 0,0"
         id="path602" />
    </clipPath>
    <clipPath
       id="clip63">
      <path
         d="m 363,769.38281 h 2 V 770 h -2 z m 0,0"
         id="path605" />
    </clipPath>
    <clipPath
       id="clip64">
      <path
         d="m 363,793 h 2 v 1.23437 h -2 z m 0,0"
         id="path608" />
    </clipPath>
    <clipPath
       id="clip65">
      <path
         d="m 363,769.38281 h 2 V 770 h -2 z m 0,0"
         id="path611" />
    </clipPath>
    <clipPath
       id="clip66">
      <path
         d="m 363,769.38281 h 1 V 771 h -1 z m 0,0"
         id="path614" />
    </clipPath>
    <clipPath
       id="clip67">
      <path
         d="m 362,793 h 2 v 1.23437 h -2 z m 0,0"
         id="path617" />
    </clipPath>
    <clipPath
       id="clip68">
      <path
         d="m 362,769.38281 h 2 V 771 h -2 z m 0,0"
         id="path620" />
    </clipPath>
    <clipPath
       id="clip69">
      <path
         d="m 362,793 h 2 v 1.23437 h -2 z m 0,0"
         id="path623" />
    </clipPath>
    <clipPath
       id="clip70">
      <path
         d="m 362,769.38281 h 2 V 771 h -2 z m 0,0"
         id="path626" />
    </clipPath>
    <clipPath
       id="clip71">
      <path
         d="m 361,769.38281 h 2 V 771 h -2 z m 0,0"
         id="path629" />
    </clipPath>
    <clipPath
       id="clip72">
      <path
         d="m 351.5,781 h 1.5 v 2 h -1.5 z m 0,0"
         id="path632" />
    </clipPath>
    <clipPath
       id="clip73">
      <path
         d="m 351.5,782 h 1.5 v 2 h -1.5 z m 0,0"
         id="path635" />
    </clipPath>
    <clipPath
       id="clip74">
      <path
         d="m 351.5,782 h 1.5 v 1 h -1.5 z m 0,0"
         id="path638" />
    </clipPath>
    <clipPath
       id="clip75">
      <path
         d="m 351.5,780 h 0.5 v 1 h -0.5 z m 0,0"
         id="path641" />
    </clipPath>
    <clipPath
       id="clip76">
      <path
         d="M 351.5,769.38281 H 378 v 24.85156 h -26.5 z m 0,0"
         id="path644" />
    </clipPath>
    <clipPath
       id="clip77">
      <rect
         x="0"
         y="0"
         width="27"
         height="26"
         id="rect713" />
    </clipPath>
    <clipPath
       id="clip78">
      <path
         d="m 25,11 h 1.273438 v 2 H 25 Z m 0,0"
         id="path647" />
    </clipPath>
    <clipPath
       id="clip79">
      <path
         d="m 25,12 h 1.273438 v 2 H 25 Z m 0,0"
         id="path650" />
    </clipPath>
    <clipPath
       id="clip80">
      <path
         d="m 25,13 h 1.273438 v 2 H 25 Z m 0,0"
         id="path653" />
    </clipPath>
    <clipPath
       id="clip81">
      <path
         d="m 25,14 h 1.273438 v 2 H 25 Z m 0,0"
         id="path656" />
    </clipPath>
    <clipPath
       id="clip82">
      <path
         d="m 25,11 h 1.273438 v 3 H 25 Z m 0,0"
         id="path659" />
    </clipPath>
    <clipPath
       id="clip83">
      <path
         d="m 15,0.382812 h 2 V 2 h -2 z m 0,0"
         id="path662" />
    </clipPath>
    <clipPath
       id="clip84">
      <path
         d="m 15,0.382812 h 1 V 1 h -1 z m 0,0"
         id="path665" />
    </clipPath>
    <clipPath
       id="clip85">
      <path
         d="m 14,0.382812 h 2 V 1 h -2 z m 0,0"
         id="path668" />
    </clipPath>
    <clipPath
       id="clip86">
      <path
         d="m 14,24 h 1 v 1.121094 h -1 z m 0,0"
         id="path671" />
    </clipPath>
    <clipPath
       id="clip87">
      <path
         d="m 13,0.382812 h 2 V 1 h -2 z m 0,0"
         id="path674" />
    </clipPath>
    <clipPath
       id="clip88">
      <path
         d="m 13,0.382812 h 2 V 2 h -2 z m 0,0"
         id="path677" />
    </clipPath>
    <clipPath
       id="clip89">
      <path
         d="m 13,0.382812 h 1 V 2 h -1 z m 0,0"
         id="path680" />
    </clipPath>
    <clipPath
       id="clip90">
      <path
         d="m 13,24 h 1 v 1.121094 h -1 z m 0,0"
         id="path683" />
    </clipPath>
    <clipPath
       id="clip91">
      <path
         d="m 12,0.382812 h 2 V 2 h -2 z m 0,0"
         id="path686" />
    </clipPath>
    <clipPath
       id="clip92">
      <path
         d="m 12,0.382812 h 1 V 1 h -1 z m 0,0"
         id="path689" />
    </clipPath>
    <clipPath
       id="clip93">
      <path
         d="m 11,0.382812 h 1 V 2 h -1 z m 0,0"
         id="path692" />
    </clipPath>
    <clipPath
       id="clip94">
      <path
         d="m 11,24 h 1 v 1.121094 h -1 z m 0,0"
         id="path695" />
    </clipPath>
    <clipPath
       id="clip95">
      <path
         d="m 10,24 h 2 v 1.121094 h -2 z m 0,0"
         id="path698" />
    </clipPath>
    <clipPath
       id="clip96">
      <path
         d="M 0.585938,13 H 2 v 1 H 0.585938 Z m 0,0"
         id="path701" />
    </clipPath>
    <clipPath
       id="clip97">
      <path
         d="M 0.585938,12 H 2 v 1 H 0.585938 Z m 0,0"
         id="path704" />
    </clipPath>
    <clipPath
       id="clip98">
      <path
         d="M 0.585938,13 H 1 v 2 H 0.585938 Z m 0,0"
         id="path707" />
    </clipPath>
    <clipPath
       id="clip99">
      <path
         d="M 0.585938,11 H 1 v 1 H 0.585938 Z m 0,0"
         id="path710" />
    </clipPath>
    <clipPath
       id="clipPath17066">
      <rect
         x="0"
         y="0"
         width="27"
         height="26"
         id="rect17064" />
    </clipPath>
    <clipPath
       id="clipPath17070">
      <path
         d="m 25,11 h 1.273438 v 2 H 25 Z m 0,0"
         id="path17068" />
    </clipPath>
    <clipPath
       id="clipPath17074">
      <path
         d="m 25,12 h 1.273438 v 2 H 25 Z m 0,0"
         id="path17072" />
    </clipPath>
    <clipPath
       id="clipPath17078">
      <path
         d="m 25,13 h 1.273438 v 2 H 25 Z m 0,0"
         id="path17076" />
    </clipPath>
    <clipPath
       id="clipPath17082">
      <path
         d="m 25,14 h 1.273438 v 2 H 25 Z m 0,0"
         id="path17080" />
    </clipPath>
    <clipPath
       id="clipPath17086">
      <path
         d="m 25,11 h 1.273438 v 3 H 25 Z m 0,0"
         id="path17084" />
    </clipPath>
    <clipPath
       id="clipPath17090">
      <path
         d="m 15,0.382812 h 2 V 2 h -2 z m 0,0"
         id="path17088" />
    </clipPath>
    <clipPath
       id="clipPath17094">
      <path
         d="m 15,0.382812 h 1 V 1 h -1 z m 0,0"
         id="path17092" />
    </clipPath>
    <clipPath
       id="clipPath17098">
      <path
         d="m 14,0.382812 h 2 V 1 h -2 z m 0,0"
         id="path17096" />
    </clipPath>
    <clipPath
       id="clipPath17102">
      <path
         d="m 14,24 h 1 v 1.121094 h -1 z m 0,0"
         id="path17100" />
    </clipPath>
    <clipPath
       id="clipPath17106">
      <path
         d="m 13,0.382812 h 2 V 1 h -2 z m 0,0"
         id="path17104" />
    </clipPath>
    <clipPath
       id="clipPath17110">
      <path
         d="m 13,0.382812 h 2 V 2 h -2 z m 0,0"
         id="path17108" />
    </clipPath>
    <clipPath
       id="clipPath17114">
      <path
         d="m 13,0.382812 h 1 V 2 h -1 z m 0,0"
         id="path17112" />
    </clipPath>
    <clipPath
       id="clipPath17118">
      <path
         d="m 13,24 h 1 v 1.121094 h -1 z m 0,0"
         id="path17116" />
    </clipPath>
    <clipPath
       id="clipPath17122">
      <path
         d="m 12,0.382812 h 2 V 2 h -2 z m 0,0"
         id="path17120" />
    </clipPath>
    <clipPath
       id="clipPath17126">
      <path
         d="m 12,0.382812 h 1 V 1 h -1 z m 0,0"
         id="path17124" />
    </clipPath>
    <clipPath
       id="clipPath17130">
      <path
         d="m 11,0.382812 h 1 V 2 h -1 z m 0,0"
         id="path17128" />
    </clipPath>
    <clipPath
       id="clipPath17134">
      <path
         d="m 11,24 h 1 v 1.121094 h -1 z m 0,0"
         id="path17132" />
    </clipPath>
    <clipPath
       id="clipPath17138">
      <path
         d="m 10,24 h 2 v 1.121094 h -2 z m 0,0"
         id="path17136" />
    </clipPath>
    <clipPath
       id="clipPath17142">
      <path
         d="M 0.585938,13 H 2 v 1 H 0.585938 Z m 0,0"
         id="path17140" />
    </clipPath>
    <clipPath
       id="clipPath17146">
      <path
         d="M 0.585938,12 H 2 v 1 H 0.585938 Z m 0,0"
         id="path17144" />
    </clipPath>
    <clipPath
       id="clipPath17150">
      <path
         d="M 0.585938,13 H 1 v 2 H 0.585938 Z m 0,0"
         id="path17148" />
    </clipPath>
    <clipPath
       id="clipPath17154">
      <path
         d="M 0.585938,11 H 1 v 1 H 0.585938 Z m 0,0"
         id="path17152" />
    </clipPath>
    <clipPath
       id="clip100">
      <path
         d="m 351.5,781 h 0.5 v 1 h -0.5 z m 0,0"
         id="path1117" />
    </clipPath>
    <clipPath
       id="clip1-8">
      <path
         d="m 437,717 h 17 v 19.35937 h -17 z m 0,0"
         id="path27431" />
    </clipPath>
    <clipPath
       clipPathUnits="userSpaceOnUse"
       id="clipPath18">
      <path
         d="M 0,595.276 H 841.89 V 0 H 0 Z"
         id="path16"
         inkscape:connector-curvature="0" />
    </clipPath>
    <clipPath
       clipPathUnits="userSpaceOnUse"
       id="clipPath34">
      <path
         d="M 0,595.276 H 841.89 V 0 H 0 Z"
         id="path32"
         inkscape:connector-curvature="0" />
    </clipPath>
  </defs>
  <sodipodi:namedview
     id="base"
     pagecolor="#00ffff"
     bordercolor="#666666"
     borderopacity="1.0"
     inkscape:pageopacity="0"
     inkscape:pageshadow="2"
     inkscape:zoom="2.6676261"
     inkscape:cx="148.69752"
     inkscape:cy="34.351617"
     inkscape:document-units="px"
     inkscape:current-layer="layer1"
     inkscape:document-rotation="0"
     showgrid="false"
     units="px"
     lock-margins="true"
     fit-margin-top="0.5"
     fit-margin-left="0.5"
     fit-margin-right="0.5"
     fit-margin-bottom="0.5"
     inkscape:window-width="1440"
     inkscape:window-height="872"
     inkscape:window-x="0"
     inkscape:window-y="28"
     inkscape:window-maximized="0" />
  <metadata
     id="metadata13">
    <rdf:RDF>
      <cc:Work
         rdf:about="">
        <dc:format>image/svg+xml</dc:format>
        <dc:type
           rdf:resource="http://purl.org/dc/dcmitype/StillImage" />
        <dc:title></dc:title>
      </cc:Work>
    </rdf:RDF>
  </metadata>
  <g
     inkscape:label="Layer 1"
     inkscape:groupmode="layer"
     id="layer1"
     transform="translate(16.708597,-97.856801)">
    <g
       id="g36950"
       transform="matrix(1.4676584,0,0,1.4676584,-320.89344,-254.43627)">
      <path
         style="fill:#0078bf;fill-opacity:1;fill-rule:nonzero;stroke:none;stroke-width:0.352778"
         d="m 215.8733,245.01417 h -0.54846 c -0.0358,0 -0.0496,-0.0165 -0.0496,-0.0565 v -2.81671 c 0,-0.0317 0.0138,-0.0496 0.0496,-0.0496 h 0.54846 c 0.0303,0 0.0455,0.0179 0.0455,0.0496 v 2.81671 c 0,0.04 -0.0152,0.0565 -0.0455,0.0565"
         id="path30370" />
      <path
         style="fill:#0078bf;fill-opacity:1;fill-rule:nonzero;stroke:none;stroke-width:0.352778"
         d="m 218.98215,245.01417 h -0.52917 c -0.0344,0 -0.0496,-0.0165 -0.0496,-0.051 v -1.58199 c 0,-0.52089 -0.21222,-0.70555 -0.71934,-0.70555 h -0.5333 c -0.0193,0 -0.0372,0.0193 -0.0372,0.04 v 2.24758 c 0,0.0345 -0.0152,0.051 -0.051,0.051 h -0.54709 c -0.0275,0 -0.0441,-0.0165 -0.0441,-0.051 v -2.82222 c 0,-0.0317 0.0165,-0.0496 0.0441,-0.0496 h 1.27469 c 0.76619,0 1.24161,0.36656 1.24161,1.09554 v 1.77629 c 0,0.0345 -0.0124,0.051 -0.0496,0.051"
         id="path30372" />
      <path
         style="fill:#0078bf;fill-opacity:1;fill-rule:nonzero;stroke:none;stroke-width:0.352778"
         d="m 220.28715,244.42988 h 0.28939 c 0.61874,0 0.8847,-0.36518 0.8847,-0.87505 0,-0.51814 -0.27698,-0.87919 -0.8723,-0.87919 h -0.30179 c -0.0275,0 -0.0441,0.0193 -0.0441,0.04 v 1.67432 c 0,0.0207 0.0165,0.04 0.0441,0.04 m -0.68764,-2.28892 c 0,-0.0317 0.0207,-0.0496 0.0455,-0.0496 h 0.87229 c 1.15067,0 1.61231,0.66422 1.61231,1.45521 0,0.81029 -0.45751,1.46761 -1.6688,1.46761 h -0.8158 c -0.0248,0 -0.0455,-0.0165 -0.0455,-0.051 z m 0,0"
         id="path30374" />
      <path
         style="fill:#0078bf;fill-opacity:1;fill-rule:nonzero;stroke:none;stroke-width:0.352778"
         d="m 224.42816,243.27095 c 0.0138,-0.38723 -0.19569,-0.70004 -0.6339,-0.70004 -0.37207,0 -0.62287,0.29766 -0.62838,0.70004 z m 0.58566,0.52366 c -0.0138,0.0193 -0.0524,0.0248 -0.0882,0.0248 h -1.75011 c 0.0345,0.41892 0.34451,0.69453 0.94671,0.69453 0.28663,0 0.53744,-0.0785 0.71796,-0.15159 0.051,-0.0207 0.0648,0.004 0.0648,0.0634 l 0.011,0.46165 c 0,0.0345 -0.011,0.0551 -0.0551,0.0703 -0.1819,0.0717 -0.51814,0.12678 -0.78272,0.12678 -0.47956,0 -0.86127,-0.12678 -1.12861,-0.36794 -0.28664,-0.25631 -0.43684,-0.64905 -0.43684,-1.14377 0,-0.97703 0.55535,-1.56132 1.305,-1.56132 0.81718,0 1.23885,0.61461 1.23885,1.4373 0,0.25769 -0.0124,0.31006 -0.0427,0.34588"
         id="path30376" />
      <path
         style="fill:#0078bf;fill-opacity:1;fill-rule:nonzero;stroke:none;stroke-width:0.352778"
         d="m 226.35328,245.08307 c -0.26734,0 -0.63665,-0.0606 -0.82131,-0.11989 -0.0606,-0.0207 -0.0675,-0.0358 -0.0675,-0.0813 l 0.007,-0.48783 c 0,-0.0317 0.0152,-0.0469 0.0565,-0.0317 0.20946,0.0882 0.53606,0.15021 0.88746,0.15021 0.48231,0 0.5898,-0.13919 0.5898,-0.29904 0,-0.16536 -0.0978,-0.24116 -0.37483,-0.30592 l -0.34313,-0.0786 c -0.54295,-0.12264 -0.83233,-0.38447 -0.83233,-0.8971 0,-0.50712 0.38171,-0.92053 1.1355,-0.92053 0.32659,0 0.65319,0.0496 0.8406,0.0978 0.0372,0.007 0.062,0.0179 0.062,0.0675 l -0.004,0.46302 c 0,0.04 -0.0248,0.0441 -0.0689,0.0358 -0.21084,-0.0482 -0.5581,-0.0923 -0.8089,-0.0923 -0.38585,0 -0.51263,0.15021 -0.51263,0.31833 0,0.14469 0.0744,0.26596 0.44924,0.35691 l 0.2949,0.0675 c 0.54846,0.12816 0.81442,0.36381 0.81442,0.83234 0,0.53744 -0.30593,0.92466 -1.30363,0.92466"
         id="path30378" />
      <path
         style="fill:#0078bf;fill-opacity:1;fill-rule:nonzero;stroke:none;stroke-width:0.352778"
         d="m 228.7428,245.01417 h -0.54709 c -0.0358,0 -0.051,-0.0165 -0.051,-0.0565 v -2.81671 c 0,-0.0317 0.0152,-0.0496 0.051,-0.0496 h 0.54709 c 0.0303,0 0.0455,0.0179 0.0455,0.0496 v 2.81671 c 0,0.04 -0.0152,0.0565 -0.0455,0.0565"
         id="path30380" />
      <path
         style="fill:#0078bf;fill-opacity:1;fill-rule:nonzero;stroke:none;stroke-width:0.352778"
         d="m 231.27563,242.67564 h -0.65595 c -0.0248,0 -0.0413,0.0193 -0.0413,0.04 v 2.25723 c 0,0.0248 -0.0124,0.0413 -0.0386,0.0413 h -0.56775 c -0.0193,0 -0.0372,-0.0165 -0.0372,-0.0413 v -2.25723 c 0,-0.0207 -0.0152,-0.04 -0.0358,-0.04 h -0.65595 c -0.0234,0 -0.0372,-0.0165 -0.0372,-0.0358 v -0.5085 c 0,-0.0221 0.0138,-0.04 0.0372,-0.04 h 2.03261 c 0.0221,0 0.0386,0.0179 0.0386,0.04 v 0.5085 c 0,0.0193 -0.0165,0.0358 -0.0386,0.0358"
         id="path30382" />
      <path
         style="fill:#0078bf;fill-opacity:1;fill-rule:nonzero;stroke:none;stroke-width:0.352778"
         d="m 211.04327,240.57827 c 0,0.24391 -0.20533,0.44924 -0.44924,0.44924 -0.2508,0 -0.44924,-0.20533 -0.44924,-0.44924 0,-0.24667 0.19844,-0.45062 0.44924,-0.45062 0.24391,0 0.44924,0.20395 0.44924,0.45062 m 1.36288,4.72253 c 0.4961,-0.49196 0.76344,-1.16582 0.76344,-1.8948 0,-0.8971 -0.44236,-1.67156 -1.17547,-2.16352 -0.12816,-0.0854 -0.20533,-0.1695 -0.20533,-0.30455 0,-0.18052 0.14194,-0.32246 0.31833,-0.32246 0.0648,0 0.11575,0.0166 0.22737,0.0882 0.86265,0.55535 1.50206,1.53927 1.50206,2.68855 0,0.89435 -0.3321,1.71015 -0.9343,2.31097 -0.59945,0.59118 -1.42214,0.91226 -2.30822,0.91226 -0.88608,0 -1.70325,-0.32384 -2.30821,-0.91226 -0.61598,-0.58842 -0.93707,-1.41662 -0.93707,-2.31097 0,-1.14928 0.63941,-2.1332 1.50482,-2.68855 0.10749,-0.0717 0.15985,-0.0882 0.22462,-0.0882 0.17915,0 0.32108,0.14194 0.32108,0.32246 0,0.13505 -0.0772,0.21911 -0.20532,0.30455 -0.73312,0.49196 -1.18098,1.26642 -1.18098,2.16352 0,0.72898 0.27285,1.40284 0.76894,1.8948 0.47818,0.47267 1.10794,0.74001 1.81212,0.74001 0.70142,0 1.33119,-0.26734 1.81212,-0.74001 m -1.81212,0.0992 c -0.19843,0 -0.35277,-0.15709 -0.35277,-0.35278 v -3.05511 c 0,-0.19981 0.15434,-0.35691 0.35277,-0.35691 0.19569,0 0.35278,0.1571 0.35278,0.35691 v 3.05511 c 0,0.19569 -0.15709,0.35278 -0.35278,0.35278"
         id="path30384" />
    </g>
  </g>
</svg>
