<?xml version="1.0" encoding="UTF-8" standalone="no"?>
<!-- Created with Inkscape (http://www.inkscape.org/) -->

<svg
   version="1.1"
   id="svg1"
   width="265.57895"
   height="73.263161"
   viewBox="0 0 265.57895 73.263161"
   xmlns="http://www.w3.org/2000/svg"
   xmlns:svg="http://www.w3.org/2000/svg">
  <defs
     id="defs1" />
  <g
     id="g1">
    <path
       id="path9"
       style="fill:#203139;fill-opacity:1"
       d="m 214.5,27 c 0.0277,9.051627 -0.0273,20.197654 0,29 0.0118,3.807496 3.08695,5.302085 6.5,5.5 4.1204,0.238933 26.51842,-0.08634 30,0 3.67512,0.09114 6.49655,-1.16504 6.5,-5.5 0.005,-6.711323 -0.0308,-23.098335 0,-29 0.003,-0.658075 -1.64294,-5.512009 -6.5,-5.5 -9.97847,0.02467 -19.59756,0.1264 -30,0 -3.1854,-0.03871 -6.51111,1.874579 -6.5,5.5 z m 25.5,6 v 17 h -7.5 c 0.0483,-5.131521 -0.0549,-11.868544 0,-17 3.16661,0.09403 4.81695,0 7.5,0 z" />
    <path
       style="fill:#203139;fill-opacity:1"
       d="m 168,21.5 c 12.10875,-0.06124 25.83403,-0.09893 37,0 0.51555,0.0046 6.48905,-0.771081 6.5,7.5 0.0136,10.302253 -0.1526,21.976139 0,32.57888 H 194 V 33 h -8 v 28.5 h -18 z"
       id="path7" />
    <path
       style="fill:#203139;fill-opacity:1"
       d="m 147.5,21.5 h 18 v 40 h -18 z"
       id="path6" />
    <path
       style="fill:#203139;fill-opacity:1"
       d="m 101.5,56 c 0.0411,-2.860613 -0.10505,-23.299841 0,-26.5 0.18422,-5.612054 0.94062,-8.026653 8.5,-8 3.02498,0.01067 25.52039,-0.0077 29,0.002 5.32615,0.01487 6.0213,4.351531 6.00475,7.997961 -0.0159,3.508625 -0.0674,6.493178 0.0198,10 H 126.94737 V 33 h -7.89474 v 17 h 7.89474 v -6.5 h 18.06925 L 144.88943,56 c -0.0362,3.555107 -1.05347,5.560268 -5.88943,5.57879 -0.38575,0.0015 -19.72081,-0.169801 -29.33361,-0.10175 C 105.00671,61.510027 101.43491,60.531429 101.5,56 Z"
       id="path5" />
    <path
       style="fill:#203139;fill-opacity:1"
       d="m 80.5,21.5 h 18 v 40 h -18 z"
       id="path4" />
    <path
       id="path3"
       style="fill:#ef7528;fill-opacity:1"
       d="m 7,9 c -0.082112,18.001125 0.032797,34.850019 0,52.5 0.088608,0.08884 34.461276,0.0712 38,0 3.123104,-0.06284 4.944105,-2.153182 5,-5.5 0.02606,-1.560175 -0.009,-27.570525 0,-28.763675 0.02147,-2.851447 -1.777207,-5.723061 -5,-5.736325 -5.757305,-0.0237 -13.251493,0 -20,0 V 9 Z m 18,24 h 8 c 0,5.557903 0.06947,11.164202 0,17 -1.984307,-0.122124 -5.816441,-0.03186 -8,0 -0.0322,-5.964931 0.03268,-13.256703 0,-17 z" />
    <path
       style="fill:#203139;fill-opacity:1"
       d="m 60.5,61.5 c -3.781347,0 -7,-2.053774 -7,-5.5 V 9 h 18 v 12.5 h 7 V 33 h -7 v 17 h 7 v 11.5 z"
       id="path1" />
  </g>
</svg>
